<svg width="24" height="24" viewBox="0 0 24 24" fill="none" xmlns="http://www.w3.org/2000/svg">
<path d="M21.75 8.25V18.8334C21.7495 19.209 21.6001 19.569 21.3346 19.8346C21.069 20.1001 20.709 20.2495 20.3334 20.25H3.75C3.35218 20.25 2.97064 20.092 2.68934 19.8107C2.40804 19.5294 2.25 19.1478 2.25 18.75V6C2.25 5.60218 2.40804 5.22064 2.68934 4.93934C2.97064 4.65804 3.35218 4.5 3.75 4.5H8.74969C9.07411 4.5008 9.38967 4.60599 9.64969 4.8L12.2503 6.75H20.25C20.6478 6.75 21.0294 6.90804 21.3107 7.18934C21.592 7.47064 21.75 7.85218 21.75 8.25ZM20.25 8.25H12.2503C11.9259 8.2492 11.6103 8.14401 11.3503 7.95L8.74969 6H3.75V18.75H20.25V8.25Z" fill="currentColor"/>
<path d="M13.2503 9.94285L16.2503 12.9428C16.32 13.0125 16.3753 13.0952 16.4131 13.1863C16.4508 13.2773 16.4703 13.3749 16.4703 13.4735C16.4703 13.572 16.4508 13.6696 16.4131 13.7607C16.3753 13.8517 16.32 13.9344 16.2503 14.0041L13.2503 17.0041C13.1096 17.1448 12.9187 17.2239 12.7197 17.2239C12.5206 17.2239 12.3298 17.1448 12.189 17.0041C12.0483 16.8634 11.9693 16.6725 11.9693 16.4735C11.9693 16.2744 12.0483 16.0836 12.189 15.9428L13.9094 14.2235H8.96967C8.77076 14.2235 8.57999 14.1445 8.43934 14.0038C8.29869 13.8632 8.21967 13.6724 8.21967 13.4735C8.21967 13.2746 8.29869 13.0838 8.43934 12.9431C8.57999 12.8025 8.77076 12.7235 8.96967 12.7235H13.9094L12.189 11.0041C12.0483 10.8634 11.9693 10.6725 11.9693 10.4735C11.9693 10.2745 12.0483 10.0836 12.189 9.94285C12.3298 9.80212 12.5206 9.72306 12.7197 9.72306C12.9187 9.72306 13.1096 9.80212 13.2503 9.94285Z" fill="currentColor"/>
</svg>
