<svg width="208" height="118" viewBox="0 0 208 118" fill="none" xmlns="http://www.w3.org/2000/svg">
  <defs>
    <filter id="flap_shadow" x="34.4314" y="4" width="139.138" height="70" filterUnits="userSpaceOnUse" color-interpolation-filters="sRGB">
      <feFlood flood-opacity="0" result="BackgroundImageFix"/>
      <feColorMatrix in="SourceAlpha" type="matrix" values="0 0 0 0 0 0 0 0 0 0 0 0 0 0 0 0 0 0 127 0" result="hardAlpha"/>
      <feOffset dy="1"/>
      <feGaussianBlur stdDeviation="3"/>
      <feComposite in2="hardAlpha" operator="out"/>
      <feColorMatrix type="matrix" values="0 0 0 0 0 0 0 0 0 0 0 0 0 0 0 0 0 0 0.06 0"/>
      <feBlend mode="normal" in2="BackgroundImageFix" result="effect1_dropShadow"/>
      <feBlend mode="normal" in="SourceGraphic" in2="effect1_dropShadow" result="shape"/>
    </filter>
    <linearGradient id="flap_fill" x1="104" y1="8" x2="104" y2="66" gradientUnits="userSpaceOnUse">
      <stop stop-color="white"/>
      <stop offset="1" stop-color="#F1F1F4"/>
    </linearGradient>
  </defs>
  <g filter="url(#flap_shadow)">
    <path d="M97.3188 64.5211C101.361 67.2308 106.64 67.2308 110.682 64.5211L162.229 29.9677C172.078 23.3656 167.404 8 155.547 8L52.4536 8C40.5964 8 35.9229 23.3656 45.772 29.9677L97.3188 64.5211Z" fill="url(#flap_fill)"/>
    <path d="M97.5971 64.1055C101.471 66.7023 106.53 66.7023 110.404 64.1055L161.951 29.5527C171.389 23.2257 166.91 8.50004 155.547 8.5L52.4536 8.5C41.0905 8.50004 36.6115 23.2257 46.0502 29.5527L97.5971 64.1055Z" stroke="#E5E5EB"/>
  </g>
</svg>
