<svg width="208" height="118" viewBox="0 0 208 118" fill="none" xmlns="http://www.w3.org/2000/svg">
  <defs>
    <filter id="pocket_shadow" x="34.4314" y="38.4467" width="139.138" height="70.5533" filterUnits="userSpaceOnUse" color-interpolation-filters="sRGB">
      <feFlood flood-opacity="0" result="BackgroundImageFix"/>
      <feColorMatrix in="SourceAlpha" type="matrix" values="0 0 0 0 0 0 0 0 0 0 0 0 0 0 0 0 0 0 127 0" result="hardAlpha"/>
      <feOffset dy="-1"/>
      <feGaussianBlur stdDeviation="3"/>
      <feComposite in2="hardAlpha" operator="out"/>
      <feColorMatrix type="matrix" values="0 0 0 0 0 0 0 0 0 0 0 0 0 0 0 0 0 0 0.05 0"/>
      <feBlend mode="normal" in2="BackgroundImageFix" result="effect1_dropShadow"/>
      <feBlend mode="normal" in="SourceGraphic" in2="effect1_dropShadow" result="shape"/>
    </filter>
    <linearGradient id="pocket_fill" x1="104" y1="43" x2="104" y2="104" gradientUnits="userSpaceOnUse">
      <stop stop-color="white"/>
      <stop offset="1" stop-color="#F1F1F4"/>
    </linearGradient>
  </defs>
  <g filter="url(#pocket_shadow)">
    <path d="M97.3188 47.4789C101.361 44.7692 106.64 44.7692 110.682 47.4789L162.229 82.0323C172.078 88.6344 167.404 104 155.547 104H52.4536C40.5964 104 35.9229 88.6344 45.772 82.0323L97.3188 47.4789Z" fill="url(#pocket_fill)"/>
    <path d="M97.5971 47.8945C101.471 45.2977 106.53 45.2977 110.404 47.8945L161.951 82.4473C171.389 88.7743 166.91 103.5 155.547 103.5H52.4536C41.0905 103.5 36.6115 88.7743 46.0502 82.4473L97.5971 47.8945Z" stroke="#E5E5EB"/>
  </g>
</svg>
